<?xml version="1.0" standalone="no"?>
<!DOCTYPE svg PUBLIC "-//W3C//DTD SVG 20010904//EN"
 "http://www.w3.org/TR/2001/REC-SVG-20010904/DTD/svg10.dtd">
<svg version="1.0" xmlns="http://www.w3.org/2000/svg"
 width="860.000000pt" height="860.000000pt" viewBox="0 0 860.000000 860.000000"
 preserveAspectRatio="xMidYMid meet">

<g transform="translate(0.000000,860.000000) scale(0.100000,-0.100000)"
fill="#000000" stroke="none">
<path d="M4066 7234 c-486 -75 -914 -384 -1134 -819 -105 -208 -155 -395 -170
-645 l-7 -115 -495 -2 -495 -2 -22 -26 c-30 -35 -30 -79 2 -110 l24 -25 496 0
495 0 0 -629 c0 -604 1 -630 19 -652 l19 -24 709 -5 708 -5 3 -197 2 -198
-1003 0 c-631 0 -1024 -4 -1058 -10 -82 -15 -174 -65 -235 -127 -72 -73 -112
-158 -125 -265 -6 -51 -9 -421 -7 -971 l3 -889 28 -24 c15 -13 37 -24 48 -24
33 0 78 29 84 53 3 12 6 441 8 952 l2 930 30 54 c16 29 47 68 68 87 82 69 -94
64 2237 64 2388 0 2163 9 2257 -85 88 -89 83 -26 83 -1071 0 -648 3 -920 11
-937 22 -49 83 -60 126 -23 l28 24 3 909 c2 611 -1 929 -8 973 -31 186 -175
335 -359 370 -34 6 -417 10 -1058 10 l-1003 0 2 198 3 197 708 5 709 5 19 24
c18 22 19 48 19 652 l0 629 495 0 496 0 24 25 c31 30 32 73 4 109 l-20 26
-497 2 -497 3 -8 120 c-15 245 -70 445 -178 655 -223 430 -648 733 -1132 804
-127 19 -339 19 -461 0z m463 -170 c432 -69 826 -368 1011 -767 45 -99 75
-184 103 -297 20 -82 21 -113 24 -872 l4 -788 -1371 0 -1370 0 0 739 c0 476 4
767 11 817 62 448 341 839 744 1041 264 133 543 175 844 127z"/>
<path d="M3660 5915 c-227 -64 -330 -307 -218 -518 38 -71 82 -111 166 -150
122 -57 273 -35 377 57 123 107 156 275 85 422 -74 152 -250 233 -410 189z
m192 -185 c130 -89 111 -274 -34 -335 -92 -38 -195 5 -239 100 -43 93 -4 194
96 249 43 24 133 17 177 -14z"/>
<path d="M4759 5917 c-104 -30 -191 -105 -237 -206 -20 -44 -26 -72 -26 -131
-1 -90 13 -142 57 -206 96 -143 287 -198 440 -127 83 39 127 79 165 151 126
236 -24 508 -292 527 -34 3 -81 -1 -107 -8z m169 -176 c47 -24 77 -56 97 -103
37 -91 -7 -197 -100 -239 -54 -25 -102 -24 -155 4 -119 61 -147 205 -57 297
60 61 144 77 215 41z"/>
<path d="M4154 3173 c-35 -102 -89 -152 -191 -174 -49 -11 -59 -10 -109 11
-38 15 -61 20 -73 14 -10 -5 -58 -51 -107 -102 l-88 -94 13 -31 c32 -78 34
-100 18 -158 -24 -81 -54 -120 -116 -150 -29 -14 -57 -32 -62 -40 -10 -16 -12
-249 -3 -273 3 -9 25 -21 48 -27 77 -21 146 -124 146 -218 0 -20 -9 -56 -20
-79 -11 -24 -17 -50 -12 -57 4 -6 46 -53 93 -104 88 -94 104 -102 149 -76 14
8 50 14 80 15 99 0 198 -65 215 -140 11 -49 36 -57 170 -58 125 0 155 7 155
36 0 10 13 38 28 63 50 78 187 123 260 85 56 -29 71 -22 170 77 50 51 92 99
92 108 0 9 -8 31 -17 50 -26 52 -21 129 13 197 25 49 37 61 84 84 85 42 81 33
78 186 -3 135 -3 137 -27 147 -99 40 -115 57 -160 173 l-20 54 25 55 c13 31
24 63 24 72 -1 9 -43 61 -94 115 l-94 100 -57 -22 c-67 -26 -98 -27 -156 -7
-65 23 -107 61 -137 123 l-27 57 -143 3 c-129 2 -143 1 -148 -15z m280 -343
c43 -11 103 -34 135 -52 193 -110 302 -347 258 -563 -91 -446 -620 -595 -926
-259 -103 112 -155 277 -133 425 47 326 350 530 666 449z"/>
</g>
</svg>
